<svg xmlns="http://www.w3.org/2000/svg" xmlns:xlink="http://www.w3.org/1999/xlink" width="500" zoomAndPan="magnify" viewBox="0 0 375 374.999991" height="500" preserveAspectRatio="xMidYMid meet" version="1.0"><path fill="#000000" d="M 242.480469 114.167969 C 237.984375 114.167969 233.488281 115.910156 230.148438 119.246094 L 187.5 161.75 L 144.996094 119.246094 C 141.511719 115.910156 137.160156 114.167969 132.664062 114.167969 C 128.167969 114.167969 123.671875 115.910156 120.332031 119.246094 L 119.316406 120.261719 C 112.5 127.078125 112.5 138.105469 119.316406 144.921875 L 161.824219 187.425781 L 119.316406 230.078125 C 112.5 236.894531 112.5 247.921875 119.316406 254.738281 L 120.332031 255.753906 C 123.671875 259.089844 128.167969 260.832031 132.664062 260.832031 C 137.160156 260.832031 141.660156 259.089844 144.996094 255.753906 L 187.5 213.25 L 230.003906 255.753906 C 233.339844 259.089844 237.839844 260.832031 242.335938 260.832031 C 246.832031 260.832031 251.328125 259.089844 254.667969 255.753906 L 255.683594 254.738281 C 262.5 247.921875 262.5 236.894531 255.683594 230.078125 L 213.175781 187.425781 L 255.683594 144.921875 C 262.5 138.105469 262.5 127.078125 255.683594 120.261719 L 254.667969 119.246094 C 251.328125 115.910156 246.832031 114.167969 242.480469 114.167969 Z M 242.480469 114.167969 " fill-opacity="1" fill-rule="nonzero"/></svg>