<svg xmlns="http://www.w3.org/2000/svg" xmlns:xlink="http://www.w3.org/1999/xlink" width="500" zoomAndPan="magnify" viewBox="0 0 375 374.999991" height="500" preserveAspectRatio="xMidYMid meet" version="1.0"><defs><clipPath id="2e9a0104f2"><path d="M 112.5 112.5 L 262.5 112.5 L 262.5 262.5 L 112.5 262.5 Z M 112.5 112.5 " clip-rule="nonzero"/></clipPath></defs><g clip-path="url(#2e9a0104f2)"><path fill="#000000" d="M 237.5 262.5 L 137.5 262.5 C 136.679688 262.5 135.863281 262.457031 135.050781 262.378906 C 134.234375 262.296875 133.425781 262.175781 132.625 262.015625 C 131.820312 261.855469 131.027344 261.65625 130.246094 261.417969 C 129.460938 261.179688 128.691406 260.902344 127.9375 260.589844 C 127.179688 260.277344 126.441406 259.925781 125.71875 259.539062 C 125 259.15625 124.296875 258.734375 123.617188 258.277344 C 122.9375 257.824219 122.28125 257.335938 121.648438 256.816406 C 121.015625 256.296875 120.410156 255.75 119.828125 255.171875 C 119.25 254.589844 118.703125 253.984375 118.183594 253.351562 C 117.664062 252.71875 117.175781 252.0625 116.722656 251.382812 C 116.265625 250.703125 115.84375 250 115.460938 249.28125 C 115.074219 248.558594 114.722656 247.820312 114.410156 247.0625 C 114.097656 246.308594 113.820312 245.539062 113.582031 244.753906 C 113.34375 243.972656 113.144531 243.179688 112.984375 242.375 C 112.824219 241.574219 112.703125 240.765625 112.621094 239.949219 C 112.542969 239.136719 112.5 238.320312 112.5 237.5 L 112.5 137.5 C 112.5 136.679688 112.542969 135.863281 112.621094 135.050781 C 112.703125 134.234375 112.824219 133.425781 112.984375 132.625 C 113.144531 131.820312 113.34375 131.027344 113.582031 130.246094 C 113.820312 129.460938 114.097656 128.691406 114.410156 127.9375 C 114.722656 127.179688 115.074219 126.441406 115.460938 125.71875 C 115.84375 125 116.265625 124.296875 116.722656 123.617188 C 117.175781 122.9375 117.664062 122.28125 118.183594 121.648438 C 118.703125 121.015625 119.25 120.410156 119.828125 119.828125 C 120.410156 119.25 121.015625 118.703125 121.648438 118.183594 C 122.28125 117.664062 122.9375 117.175781 123.617188 116.722656 C 124.296875 116.265625 125 115.84375 125.71875 115.460938 C 126.441406 115.074219 127.179688 114.722656 127.9375 114.410156 C 128.691406 114.097656 129.460938 113.820312 130.246094 113.582031 C 131.027344 113.34375 131.820312 113.144531 132.625 112.984375 C 133.425781 112.824219 134.234375 112.703125 135.050781 112.621094 C 135.863281 112.542969 136.679688 112.5 137.5 112.5 L 237.5 112.5 C 238.320312 112.5 239.136719 112.542969 239.949219 112.621094 C 240.765625 112.703125 241.574219 112.824219 242.375 112.984375 C 243.179688 113.144531 243.972656 113.34375 244.753906 113.582031 C 245.539062 113.820312 246.308594 114.097656 247.0625 114.410156 C 247.820312 114.722656 248.558594 115.074219 249.28125 115.460938 C 250 115.84375 250.703125 116.265625 251.382812 116.722656 C 252.0625 117.175781 252.71875 117.664062 253.351562 118.183594 C 253.984375 118.703125 254.589844 119.25 255.171875 119.828125 C 255.75 120.410156 256.296875 121.015625 256.816406 121.648438 C 257.335938 122.28125 257.824219 122.9375 258.277344 123.617188 C 258.734375 124.296875 259.15625 125 259.539062 125.71875 C 259.925781 126.441406 260.277344 127.179688 260.589844 127.9375 C 260.902344 128.691406 261.179688 129.460938 261.417969 130.246094 C 261.65625 131.027344 261.855469 131.820312 262.015625 132.625 C 262.175781 133.425781 262.296875 134.234375 262.378906 135.050781 C 262.457031 135.863281 262.5 136.679688 262.5 137.5 L 262.5 237.5 C 262.5 238.320312 262.457031 239.136719 262.378906 239.949219 C 262.296875 240.765625 262.175781 241.574219 262.015625 242.375 C 261.855469 243.179688 261.65625 243.972656 261.417969 244.753906 C 261.179688 245.539062 260.902344 246.308594 260.589844 247.0625 C 260.277344 247.820312 259.925781 248.558594 259.539062 249.28125 C 259.15625 250 258.734375 250.703125 258.277344 251.382812 C 257.824219 252.0625 257.335938 252.71875 256.816406 253.351562 C 256.296875 253.984375 255.75 254.589844 255.171875 255.171875 C 254.589844 255.75 253.984375 256.296875 253.351562 256.816406 C 252.71875 257.335938 252.0625 257.824219 251.382812 258.277344 C 250.703125 258.734375 250 259.15625 249.28125 259.539062 C 248.558594 259.925781 247.820312 260.277344 247.0625 260.589844 C 246.308594 260.902344 245.539062 261.179688 244.753906 261.417969 C 243.972656 261.65625 243.179688 261.855469 242.375 262.015625 C 241.574219 262.175781 240.765625 262.296875 239.949219 262.378906 C 239.136719 262.457031 238.320312 262.5 237.5 262.5 Z M 137.5 129.167969 C 136.953125 129.167969 136.410156 129.21875 135.875 129.328125 C 135.335938 129.433594 134.816406 129.589844 134.3125 129.800781 C 133.804688 130.011719 133.324219 130.265625 132.871094 130.570312 C 132.414062 130.875 131.996094 131.21875 131.609375 131.609375 C 131.21875 131.996094 130.875 132.414062 130.570312 132.871094 C 130.265625 133.324219 130.011719 133.804688 129.800781 134.3125 C 129.589844 134.816406 129.433594 135.335938 129.328125 135.875 C 129.21875 136.410156 129.167969 136.953125 129.167969 137.5 L 129.167969 237.5 C 129.167969 238.046875 129.21875 238.589844 129.328125 239.125 C 129.433594 239.664062 129.589844 240.183594 129.800781 240.6875 C 130.011719 241.195312 130.265625 241.675781 130.570312 242.128906 C 130.875 242.585938 131.21875 243.003906 131.609375 243.390625 C 131.996094 243.78125 132.414062 244.125 132.871094 244.429688 C 133.324219 244.734375 133.804688 244.988281 134.3125 245.199219 C 134.816406 245.410156 135.335938 245.566406 135.875 245.671875 C 136.410156 245.78125 136.953125 245.832031 137.5 245.832031 L 237.5 245.832031 C 238.046875 245.832031 238.589844 245.78125 239.125 245.671875 C 239.664062 245.566406 240.183594 245.410156 240.6875 245.199219 C 241.195312 244.988281 241.675781 244.734375 242.128906 244.429688 C 242.585938 244.125 243.003906 243.78125 243.390625 243.390625 C 243.78125 243.003906 244.125 242.585938 244.429688 242.128906 C 244.734375 241.675781 244.988281 241.195312 245.199219 240.6875 C 245.410156 240.183594 245.566406 239.664062 245.671875 239.125 C 245.78125 238.589844 245.832031 238.046875 245.832031 237.5 L 245.832031 137.5 C 245.832031 136.953125 245.78125 136.410156 245.671875 135.875 C 245.566406 135.335938 245.410156 134.816406 245.199219 134.3125 C 244.988281 133.804688 244.734375 133.324219 244.429688 132.871094 C 244.125 132.414062 243.78125 131.996094 243.390625 131.609375 C 243.003906 131.21875 242.585938 130.875 242.128906 130.570312 C 241.675781 130.265625 241.195312 130.011719 240.6875 129.800781 C 240.183594 129.589844 239.664062 129.433594 239.125 129.328125 C 238.589844 129.21875 238.046875 129.167969 237.5 129.167969 Z M 137.5 129.167969 " fill-opacity="1" fill-rule="nonzero"/></g><path fill="#000000" d="M 154.167969 229.167969 C 153.621094 229.167969 153.078125 229.113281 152.539062 229.007812 C 152.003906 228.898438 151.484375 228.742188 150.976562 228.53125 C 150.472656 228.324219 149.992188 228.066406 149.535156 227.761719 C 149.082031 227.457031 148.660156 227.113281 148.273438 226.726562 C 147.886719 226.339844 147.542969 225.917969 147.238281 225.464844 C 146.933594 225.007812 146.675781 224.527344 146.46875 224.023438 C 146.257812 223.515625 146.101562 222.996094 145.992188 222.460938 C 145.886719 221.921875 145.832031 221.378906 145.832031 220.832031 L 145.832031 179.167969 C 145.832031 178.621094 145.886719 178.078125 145.992188 177.539062 C 146.101562 177.003906 146.257812 176.484375 146.46875 175.976562 C 146.675781 175.472656 146.933594 174.992188 147.238281 174.535156 C 147.542969 174.082031 147.886719 173.660156 148.273438 173.273438 C 148.660156 172.886719 149.082031 172.542969 149.535156 172.238281 C 149.992188 171.933594 150.472656 171.675781 150.976562 171.46875 C 151.484375 171.257812 152.003906 171.101562 152.539062 170.992188 C 153.078125 170.886719 153.621094 170.832031 154.167969 170.832031 C 154.714844 170.832031 155.253906 170.886719 155.792969 170.992188 C 156.328125 171.101562 156.851562 171.257812 157.355469 171.46875 C 157.859375 171.675781 158.339844 171.933594 158.796875 172.238281 C 159.25 172.542969 159.671875 172.886719 160.058594 173.273438 C 160.445312 173.660156 160.792969 174.082031 161.09375 174.535156 C 161.398438 174.992188 161.65625 175.472656 161.867188 175.976562 C 162.074219 176.484375 162.234375 177.003906 162.339844 177.539062 C 162.445312 178.078125 162.5 178.621094 162.5 179.167969 L 162.5 220.832031 C 162.5 221.378906 162.445312 221.921875 162.339844 222.460938 C 162.234375 222.996094 162.074219 223.515625 161.867188 224.023438 C 161.65625 224.527344 161.398438 225.007812 161.09375 225.464844 C 160.792969 225.917969 160.445312 226.339844 160.058594 226.726562 C 159.671875 227.113281 159.25 227.457031 158.796875 227.761719 C 158.339844 228.066406 157.859375 228.324219 157.355469 228.53125 C 156.851562 228.742188 156.328125 228.898438 155.792969 229.007812 C 155.253906 229.113281 154.714844 229.167969 154.167969 229.167969 Z M 154.167969 229.167969 " fill-opacity="1" fill-rule="nonzero"/><path fill="#000000" d="M 154.167969 162.582031 C 153.617188 162.585938 153.074219 162.53125 152.539062 162.425781 C 152 162.320312 151.476562 162.164062 150.972656 161.957031 C 150.464844 161.75 149.984375 161.492188 149.527344 161.191406 C 149.070312 160.886719 148.648438 160.542969 148.257812 160.15625 C 147.871094 159.769531 147.523438 159.347656 147.214844 158.894531 C 146.910156 158.441406 146.652344 157.960938 146.441406 157.453125 C 146.226562 156.949219 146.066406 156.429688 145.957031 155.890625 C 145.851562 155.355469 145.792969 154.8125 145.792969 154.265625 C 145.789062 153.714844 145.839844 153.171875 145.945312 152.636719 C 146.050781 152.097656 146.207031 151.574219 146.414062 151.066406 C 146.621094 150.558594 146.875 150.078125 147.179688 149.621094 C 147.480469 149.164062 147.824219 148.742188 148.210938 148.351562 C 148.59375 147.960938 149.015625 147.613281 149.46875 147.308594 C 149.921875 147 150.402344 146.742188 150.90625 146.527344 C 151.414062 146.316406 151.933594 146.15625 152.46875 146.042969 C 153.007812 145.933594 153.550781 145.878906 154.097656 145.875 C 154.644531 145.871094 155.1875 145.921875 155.726562 146.027344 C 156.265625 146.128906 156.789062 146.285156 157.292969 146.492188 C 157.800781 146.699219 158.285156 146.953125 158.742188 147.253906 C 159.199219 147.554688 159.625 147.898438 160.015625 148.28125 C 160.402344 148.667969 160.753906 149.085938 161.058594 149.539062 C 161.367188 149.992188 161.628906 150.472656 161.839844 150.976562 C 162.054688 151.484375 162.21875 152.003906 162.328125 152.539062 C 162.4375 153.078125 162.496094 153.617188 162.5 154.167969 L 162.5 154.25 C 162.5 154.796875 162.445312 155.339844 162.339844 155.875 C 162.234375 156.414062 162.074219 156.933594 161.867188 157.4375 C 161.65625 157.945312 161.398438 158.425781 161.09375 158.878906 C 160.792969 159.335938 160.445312 159.753906 160.058594 160.140625 C 159.671875 160.53125 159.25 160.875 158.796875 161.179688 C 158.339844 161.484375 157.859375 161.738281 157.355469 161.949219 C 156.851562 162.160156 156.328125 162.316406 155.792969 162.421875 C 155.253906 162.53125 154.714844 162.582031 154.167969 162.582031 Z M 154.167969 162.582031 " fill-opacity="1" fill-rule="nonzero"/><path fill="#000000" d="M 187.5 229.167969 C 186.953125 229.167969 186.410156 229.113281 185.875 229.007812 C 185.335938 228.898438 184.816406 228.742188 184.3125 228.53125 C 183.804688 228.324219 183.324219 228.066406 182.871094 227.761719 C 182.414062 227.457031 181.996094 227.113281 181.609375 226.726562 C 181.21875 226.339844 180.875 225.917969 180.570312 225.464844 C 180.265625 225.007812 180.011719 224.527344 179.800781 224.023438 C 179.589844 223.515625 179.433594 222.996094 179.328125 222.460938 C 179.21875 221.921875 179.167969 221.378906 179.167969 220.832031 L 179.167969 179.167969 C 179.167969 178.621094 179.21875 178.078125 179.328125 177.539062 C 179.433594 177.003906 179.589844 176.484375 179.800781 175.976562 C 180.011719 175.472656 180.265625 174.992188 180.570312 174.535156 C 180.875 174.082031 181.21875 173.660156 181.609375 173.273438 C 181.996094 172.886719 182.414062 172.542969 182.871094 172.238281 C 183.324219 171.933594 183.804688 171.675781 184.3125 171.46875 C 184.816406 171.257812 185.335938 171.101562 185.875 170.992188 C 186.410156 170.886719 186.953125 170.832031 187.5 170.832031 C 188.046875 170.832031 188.589844 170.886719 189.125 170.992188 C 189.664062 171.101562 190.183594 171.257812 190.6875 171.46875 C 191.195312 171.675781 191.675781 171.933594 192.128906 172.238281 C 192.585938 172.542969 193.003906 172.886719 193.390625 173.273438 C 193.78125 173.660156 194.125 174.082031 194.429688 174.535156 C 194.734375 174.992188 194.988281 175.472656 195.199219 175.976562 C 195.410156 176.484375 195.566406 177.003906 195.671875 177.539062 C 195.78125 178.078125 195.832031 178.621094 195.832031 179.167969 L 195.832031 220.832031 C 195.832031 221.378906 195.78125 221.921875 195.671875 222.460938 C 195.566406 222.996094 195.410156 223.515625 195.199219 224.023438 C 194.988281 224.527344 194.734375 225.007812 194.429688 225.464844 C 194.125 225.917969 193.78125 226.339844 193.390625 226.726562 C 193.003906 227.113281 192.585938 227.457031 192.128906 227.761719 C 191.675781 228.066406 191.195312 228.324219 190.6875 228.53125 C 190.183594 228.742188 189.664062 228.898438 189.125 229.007812 C 188.589844 229.113281 188.046875 229.167969 187.5 229.167969 Z M 187.5 229.167969 " fill-opacity="1" fill-rule="nonzero"/><path fill="#000000" d="M 220.832031 229.167969 C 220.285156 229.167969 219.746094 229.113281 219.207031 229.007812 C 218.671875 228.898438 218.148438 228.742188 217.644531 228.53125 C 217.140625 228.324219 216.660156 228.066406 216.203125 227.761719 C 215.75 227.457031 215.328125 227.113281 214.941406 226.726562 C 214.554688 226.339844 214.207031 225.917969 213.90625 225.464844 C 213.601562 225.007812 213.34375 224.527344 213.132812 224.023438 C 212.925781 223.515625 212.765625 222.996094 212.660156 222.460938 C 212.554688 221.921875 212.5 221.378906 212.5 220.832031 L 212.5 195.832031 C 212.5 195.285156 212.445312 194.746094 212.339844 194.207031 C 212.234375 193.671875 212.074219 193.148438 211.867188 192.644531 C 211.65625 192.140625 211.398438 191.660156 211.09375 191.203125 C 210.792969 190.75 210.445312 190.328125 210.058594 189.941406 C 209.671875 189.554688 209.25 189.207031 208.796875 188.90625 C 208.339844 188.601562 207.859375 188.34375 207.355469 188.132812 C 206.851562 187.925781 206.328125 187.765625 205.792969 187.660156 C 205.253906 187.554688 204.714844 187.5 204.167969 187.5 C 203.621094 187.5 203.078125 187.554688 202.539062 187.660156 C 202.003906 187.765625 201.484375 187.925781 200.976562 188.132812 C 200.472656 188.34375 199.992188 188.601562 199.535156 188.90625 C 199.082031 189.207031 198.660156 189.554688 198.273438 189.941406 C 197.886719 190.328125 197.542969 190.75 197.238281 191.203125 C 196.933594 191.660156 196.675781 192.140625 196.46875 192.644531 C 196.257812 193.148438 196.101562 193.671875 195.992188 194.207031 C 195.886719 194.746094 195.832031 195.285156 195.832031 195.832031 C 195.832031 196.378906 195.78125 196.921875 195.671875 197.460938 C 195.566406 197.996094 195.410156 198.515625 195.199219 199.023438 C 194.988281 199.527344 194.734375 200.007812 194.429688 200.464844 C 194.125 200.917969 193.78125 201.339844 193.390625 201.726562 C 193.003906 202.113281 192.585938 202.457031 192.128906 202.761719 C 191.675781 203.066406 191.195312 203.324219 190.6875 203.53125 C 190.183594 203.742188 189.664062 203.898438 189.125 204.007812 C 188.589844 204.113281 188.046875 204.167969 187.5 204.167969 C 186.953125 204.167969 186.410156 204.113281 185.875 204.007812 C 185.335938 203.898438 184.816406 203.742188 184.3125 203.53125 C 183.804688 203.324219 183.324219 203.066406 182.871094 202.761719 C 182.414062 202.457031 181.996094 202.113281 181.609375 201.726562 C 181.21875 201.339844 180.875 200.917969 180.570312 200.464844 C 180.265625 200.007812 180.011719 199.527344 179.800781 199.023438 C 179.589844 198.515625 179.433594 197.996094 179.328125 197.460938 C 179.21875 196.921875 179.167969 196.378906 179.167969 195.832031 C 179.167969 195.015625 179.207031 194.199219 179.285156 193.382812 C 179.367188 192.566406 179.488281 191.757812 179.648438 190.957031 C 179.808594 190.152344 180.003906 189.359375 180.242188 188.578125 C 180.480469 187.792969 180.757812 187.023438 181.070312 186.265625 C 181.382812 185.511719 181.734375 184.769531 182.117188 184.046875 C 182.503906 183.328125 182.925781 182.625 183.378906 181.945312 C 183.835938 181.261719 184.320312 180.605469 184.839844 179.972656 C 185.359375 179.339844 185.910156 178.734375 186.488281 178.15625 C 187.066406 177.578125 187.675781 177.027344 188.308594 176.507812 C 188.941406 175.988281 189.597656 175.5 190.277344 175.046875 C 190.957031 174.589844 191.660156 174.171875 192.382812 173.785156 C 193.105469 173.398438 193.84375 173.050781 194.597656 172.734375 C 195.355469 172.421875 196.125 172.148438 196.910156 171.910156 C 197.691406 171.671875 198.488281 171.472656 199.289062 171.3125 C 200.09375 171.152344 200.902344 171.035156 201.714844 170.953125 C 202.53125 170.875 203.347656 170.832031 204.167969 170.832031 C 204.984375 170.832031 205.800781 170.875 206.617188 170.953125 C 207.433594 171.035156 208.242188 171.152344 209.042969 171.3125 C 209.847656 171.472656 210.640625 171.671875 211.421875 171.910156 C 212.207031 172.148438 212.976562 172.421875 213.734375 172.734375 C 214.488281 173.050781 215.230469 173.398438 215.953125 173.785156 C 216.671875 174.171875 217.375 174.589844 218.054688 175.046875 C 218.738281 175.5 219.394531 175.988281 220.027344 176.507812 C 220.660156 177.027344 221.265625 177.578125 221.84375 178.15625 C 222.421875 178.734375 222.972656 179.339844 223.492188 179.972656 C 224.011719 180.605469 224.5 181.261719 224.953125 181.945312 C 225.410156 182.625 225.828125 183.328125 226.214844 184.046875 C 226.601562 184.769531 226.949219 185.511719 227.261719 186.265625 C 227.578125 187.023438 227.851562 187.792969 228.089844 188.578125 C 228.328125 189.359375 228.527344 190.152344 228.6875 190.957031 C 228.847656 191.757812 228.964844 192.566406 229.046875 193.382812 C 229.125 194.199219 229.167969 195.015625 229.167969 195.832031 L 229.167969 220.832031 C 229.167969 221.378906 229.113281 221.921875 229.007812 222.460938 C 228.898438 222.996094 228.742188 223.515625 228.53125 224.023438 C 228.324219 224.527344 228.066406 225.007812 227.761719 225.464844 C 227.457031 225.917969 227.113281 226.339844 226.726562 226.726562 C 226.339844 227.113281 225.917969 227.457031 225.464844 227.761719 C 225.007812 228.066406 224.527344 228.324219 224.023438 228.53125 C 223.515625 228.742188 222.996094 228.898438 222.460938 229.007812 C 221.921875 229.113281 221.378906 229.167969 220.832031 229.167969 Z M 220.832031 229.167969 " fill-opacity="1" fill-rule="nonzero"/></svg>