<svg xmlns="http://www.w3.org/2000/svg" xmlns:xlink="http://www.w3.org/1999/xlink" width="500" zoomAndPan="magnify" viewBox="0 0 375 374.999991" height="500" preserveAspectRatio="xMidYMid meet" version="1.0"><defs><clipPath id="687b3c9815"><path d="M 113 152 L 262.5 152 L 262.5 223 L 113 223 Z M 113 152 " clip-rule="nonzero"/></clipPath></defs><g clip-path="url(#687b3c9815)"><path fill="#000000" d="M 144.25 154.097656 L 114.554688 183.871094 C 112.5 185.933594 112.5 189.320312 114.554688 191.382812 L 144.183594 221.089844 C 146.238281 223.148438 149.617188 223.148438 151.671875 221.089844 C 153.726562 219.027344 153.726562 215.640625 151.671875 213.578125 L 131.125 192.910156 L 257.199219 192.910156 C 260.113281 192.910156 262.5 190.519531 262.5 187.59375 C 262.5 184.667969 260.113281 182.277344 257.199219 182.277344 L 131.125 182.277344 L 151.738281 161.609375 C 152.800781 160.546875 153.265625 159.214844 153.265625 157.820312 C 153.265625 156.425781 152.734375 155.09375 151.738281 154.03125 C 149.683594 152.039062 146.304688 152.039062 144.25 154.097656 Z M 144.25 154.097656 " fill-opacity="1" fill-rule="nonzero"/></g></svg>