<svg xmlns="http://www.w3.org/2000/svg" xmlns:xlink="http://www.w3.org/1999/xlink" width="500" zoomAndPan="magnify" viewBox="0 0 375 374.999991" height="500" preserveAspectRatio="xMidYMid meet" version="1.0"><defs><clipPath id="2b673b4d17"><path d="M 112.5 123.742188 L 262.5 123.742188 L 262.5 251.242188 L 112.5 251.242188 Z M 112.5 123.742188 " clip-rule="nonzero"/></clipPath></defs><g clip-path="url(#2b673b4d17)"><path fill="#000000" d="M 248.367188 123.792969 L 126.632812 123.792969 C 118.84375 123.792969 112.5 130.136719 112.5 137.925781 L 112.5 237.058594 C 112.5 244.847656 118.84375 251.191406 126.632812 251.191406 L 248.367188 251.191406 C 256.15625 251.191406 262.5 244.847656 262.5 237.058594 L 262.5 137.925781 C 262.5 130.136719 256.15625 123.792969 248.367188 123.792969 Z M 124 137.925781 C 124 136.492188 125.203125 135.292969 126.632812 135.292969 L 248.367188 135.292969 C 249.796875 135.292969 251 136.492188 251 137.925781 L 251 139.757812 L 188.855469 201.894531 C 188.117188 202.632812 186.882812 202.632812 186.144531 201.894531 L 124 139.757812 Z M 251 237.074219 C 251 238.507812 249.796875 239.707031 248.367188 239.707031 L 126.632812 239.707031 C 125.203125 239.707031 124 238.507812 124 237.074219 L 124 156.015625 L 178 210.007812 C 180.523438 212.535156 183.898438 213.933594 187.484375 213.933594 C 191.070312 213.933594 194.445312 212.550781 196.96875 210.007812 L 250.96875 156.015625 L 250.96875 237.074219 Z M 251 237.074219 " fill-opacity="1" fill-rule="nonzero"/></g></svg>