<svg xmlns="http://www.w3.org/2000/svg" xmlns:xlink="http://www.w3.org/1999/xlink" width="500" zoomAndPan="magnify" viewBox="0 0 375 374.999991" height="500" preserveAspectRatio="xMidYMid meet" version="1.0"><defs><clipPath id="197db1bde8"><path d="M 112.5 180 L 262.5 180 L 262.5 195 L 112.5 195 Z M 112.5 180 " clip-rule="nonzero"/></clipPath><clipPath id="b5998301d6"><path d="M 112.5 225 L 262.5 225 L 262.5 240 L 112.5 240 Z M 112.5 225 " clip-rule="nonzero"/></clipPath><clipPath id="15386a5555"><path d="M 112.5 135 L 262.5 135 L 262.5 150 L 112.5 150 Z M 112.5 135 " clip-rule="nonzero"/></clipPath></defs><g clip-path="url(#197db1bde8)"><path fill="#000000" d="M 255 180 L 120 180 C 119.507812 180 119.019531 180.046875 118.535156 180.144531 C 118.054688 180.238281 117.585938 180.382812 117.128906 180.570312 C 116.675781 180.757812 116.242188 180.992188 115.832031 181.265625 C 115.421875 181.539062 115.042969 181.847656 114.695312 182.195312 C 114.347656 182.542969 114.039062 182.921875 113.765625 183.332031 C 113.492188 183.742188 113.257812 184.175781 113.070312 184.628906 C 112.882812 185.085938 112.738281 185.554688 112.644531 186.035156 C 112.546875 186.519531 112.5 187.007812 112.5 187.5 C 112.5 187.992188 112.546875 188.480469 112.644531 188.964844 C 112.738281 189.445312 112.882812 189.914062 113.070312 190.371094 C 113.257812 190.824219 113.492188 191.257812 113.765625 191.667969 C 114.039062 192.078125 114.347656 192.453125 114.695312 192.804688 C 115.042969 193.152344 115.421875 193.460938 115.832031 193.734375 C 116.242188 194.007812 116.675781 194.242188 117.128906 194.429688 C 117.585938 194.617188 118.054688 194.761719 118.535156 194.855469 C 119.019531 194.953125 119.507812 195 120 195 L 255 195 C 255.492188 195 255.980469 194.953125 256.464844 194.855469 C 256.945312 194.761719 257.414062 194.617188 257.871094 194.429688 C 258.324219 194.242188 258.757812 194.007812 259.167969 193.734375 C 259.578125 193.460938 259.953125 193.152344 260.304688 192.804688 C 260.652344 192.453125 260.960938 192.078125 261.234375 191.667969 C 261.507812 191.257812 261.742188 190.824219 261.929688 190.371094 C 262.117188 189.914062 262.257812 189.445312 262.355469 188.964844 C 262.453125 188.480469 262.5 187.992188 262.5 187.5 C 262.5 187.007812 262.453125 186.519531 262.355469 186.035156 C 262.261719 185.554688 262.117188 185.085938 261.929688 184.628906 C 261.742188 184.175781 261.507812 183.742188 261.234375 183.332031 C 260.960938 182.921875 260.652344 182.542969 260.304688 182.195312 C 259.953125 181.847656 259.578125 181.539062 259.167969 181.265625 C 258.757812 180.992188 258.324219 180.757812 257.871094 180.570312 C 257.414062 180.382812 256.945312 180.238281 256.464844 180.144531 C 255.980469 180.046875 255.492188 180 255 180 Z M 255 180 " fill-opacity="1" fill-rule="nonzero"/></g><g clip-path="url(#b5998301d6)"><path fill="#000000" d="M 255 225 L 120 225 C 119.507812 225 119.019531 225.046875 118.535156 225.144531 C 118.054688 225.238281 117.585938 225.382812 117.128906 225.570312 C 116.675781 225.757812 116.242188 225.992188 115.832031 226.265625 C 115.421875 226.539062 115.042969 226.847656 114.695312 227.195312 C 114.347656 227.542969 114.039062 227.921875 113.765625 228.332031 C 113.492188 228.742188 113.257812 229.175781 113.070312 229.628906 C 112.882812 230.085938 112.738281 230.554688 112.644531 231.035156 C 112.546875 231.519531 112.5 232.007812 112.5 232.5 C 112.5 232.992188 112.546875 233.480469 112.644531 233.964844 C 112.738281 234.445312 112.882812 234.914062 113.070312 235.371094 C 113.257812 235.824219 113.492188 236.257812 113.765625 236.667969 C 114.039062 237.078125 114.347656 237.453125 114.695312 237.804688 C 115.042969 238.152344 115.421875 238.460938 115.832031 238.734375 C 116.242188 239.007812 116.675781 239.242188 117.128906 239.429688 C 117.585938 239.617188 118.054688 239.761719 118.535156 239.855469 C 119.019531 239.953125 119.507812 240 120 240 L 255 240 C 255.492188 240 255.980469 239.953125 256.464844 239.855469 C 256.945312 239.761719 257.414062 239.617188 257.871094 239.429688 C 258.324219 239.242188 258.757812 239.007812 259.167969 238.734375 C 259.578125 238.460938 259.953125 238.152344 260.304688 237.804688 C 260.652344 237.453125 260.960938 237.078125 261.234375 236.667969 C 261.507812 236.257812 261.742188 235.824219 261.929688 235.371094 C 262.117188 234.914062 262.257812 234.445312 262.355469 233.964844 C 262.453125 233.480469 262.5 232.992188 262.5 232.5 C 262.5 232.007812 262.453125 231.519531 262.355469 231.035156 C 262.261719 230.554688 262.117188 230.085938 261.929688 229.628906 C 261.742188 229.175781 261.507812 228.742188 261.234375 228.332031 C 260.960938 227.921875 260.652344 227.542969 260.304688 227.195312 C 259.953125 226.847656 259.578125 226.539062 259.167969 226.265625 C 258.757812 225.992188 258.324219 225.757812 257.871094 225.570312 C 257.414062 225.382812 256.945312 225.238281 256.464844 225.144531 C 255.980469 225.046875 255.492188 225 255 225 Z M 255 225 " fill-opacity="1" fill-rule="nonzero"/></g><g clip-path="url(#15386a5555)"><path fill="#000000" d="M 120 150 L 255 150 C 255.492188 150 255.980469 149.953125 256.464844 149.855469 C 256.945312 149.761719 257.414062 149.617188 257.871094 149.429688 C 258.324219 149.242188 258.757812 149.007812 259.167969 148.734375 C 259.578125 148.460938 259.953125 148.152344 260.304688 147.804688 C 260.652344 147.453125 260.960938 147.078125 261.234375 146.667969 C 261.507812 146.257812 261.742188 145.824219 261.929688 145.371094 C 262.117188 144.914062 262.257812 144.445312 262.355469 143.964844 C 262.453125 143.480469 262.5 142.992188 262.5 142.5 C 262.5 142.007812 262.453125 141.519531 262.355469 141.035156 C 262.261719 140.554688 262.117188 140.085938 261.929688 139.628906 C 261.742188 139.175781 261.507812 138.742188 261.234375 138.332031 C 260.960938 137.921875 260.652344 137.542969 260.304688 137.195312 C 259.953125 136.847656 259.578125 136.539062 259.167969 136.265625 C 258.757812 135.992188 258.324219 135.757812 257.871094 135.570312 C 257.414062 135.382812 256.945312 135.238281 256.464844 135.144531 C 255.980469 135.046875 255.492188 135 255 135 L 120 135 C 119.507812 135 119.019531 135.046875 118.535156 135.144531 C 118.054688 135.238281 117.585938 135.382812 117.128906 135.570312 C 116.675781 135.757812 116.242188 135.992188 115.832031 136.265625 C 115.421875 136.539062 115.042969 136.847656 114.695312 137.195312 C 114.347656 137.542969 114.039062 137.921875 113.765625 138.332031 C 113.492188 138.742188 113.257812 139.175781 113.070312 139.628906 C 112.882812 140.085938 112.738281 140.554688 112.644531 141.035156 C 112.546875 141.519531 112.5 142.007812 112.5 142.5 C 112.5 142.992188 112.546875 143.480469 112.644531 143.964844 C 112.738281 144.445312 112.882812 144.914062 113.070312 145.371094 C 113.257812 145.824219 113.492188 146.257812 113.765625 146.667969 C 114.039062 147.078125 114.347656 147.453125 114.695312 147.804688 C 115.042969 148.152344 115.421875 148.460938 115.832031 148.734375 C 116.242188 149.007812 116.675781 149.242188 117.128906 149.429688 C 117.585938 149.617188 118.054688 149.761719 118.535156 149.855469 C 119.019531 149.953125 119.507812 150 120 150 Z M 120 150 " fill-opacity="1" fill-rule="nonzero"/></g></svg>