<svg xmlns="http://www.w3.org/2000/svg" xmlns:xlink="http://www.w3.org/1999/xlink" width="170" zoomAndPan="magnify" viewBox="0 0 187.5 187.499992" height="170" preserveAspectRatio="xMidYMid meet" version="1.0"><defs><clipPath id="dd3d1dcd06"><path d="M 39.945312 3.230469 L 164.113281 3.230469 L 164.113281 127.402344 L 39.945312 127.402344 Z M 39.945312 3.230469 " clip-rule="nonzero"/></clipPath><clipPath id="9c25c9a3b6"><path d="M 16.574219 36.339844 L 164.675781 36.339844 L 164.675781 184.441406 L 16.574219 184.441406 Z M 16.574219 36.339844 " clip-rule="nonzero"/></clipPath></defs><g clip-path="url(#dd3d1dcd06)"><path fill="#2f838a" d="M 164.460938 65.492188 C 164.460938 67.53125 164.359375 69.5625 164.160156 71.59375 C 163.960938 73.621094 163.664062 75.636719 163.265625 77.636719 C 162.867188 79.636719 162.371094 81.613281 161.78125 83.5625 C 161.1875 85.515625 160.503906 87.433594 159.722656 89.316406 C 158.941406 91.199219 158.070312 93.042969 157.109375 94.839844 C 156.148438 96.636719 155.101562 98.382812 153.96875 100.078125 C 152.835938 101.777344 151.621094 103.410156 150.328125 104.988281 C 149.035156 106.5625 147.667969 108.074219 146.226562 109.515625 C 144.785156 110.957031 143.273438 112.324219 141.699219 113.617188 C 140.121094 114.910156 138.488281 116.125 136.792969 117.257812 C 135.097656 118.390625 133.347656 119.4375 131.550781 120.398438 C 129.753906 121.359375 127.910156 122.230469 126.027344 123.011719 C 124.144531 123.789062 122.226562 124.476562 120.273438 125.070312 C 118.324219 125.660156 116.347656 126.15625 114.347656 126.554688 C 112.347656 126.953125 110.332031 127.25 108.304688 127.449219 C 106.277344 127.648438 104.242188 127.75 102.203125 127.75 C 100.164062 127.75 98.128906 127.648438 96.101562 127.449219 C 94.070312 127.25 92.054688 126.953125 90.054688 126.554688 C 88.054688 126.15625 86.082031 125.660156 84.128906 125.070312 C 82.179688 124.476562 80.261719 123.789062 78.375 123.011719 C 76.492188 122.230469 74.652344 121.359375 72.855469 120.398438 C 71.054688 119.4375 69.308594 118.390625 67.613281 117.257812 C 65.917969 116.125 64.28125 114.910156 62.707031 113.617188 C 61.128906 112.324219 59.621094 110.957031 58.179688 109.515625 C 56.738281 108.074219 55.371094 106.5625 54.074219 104.988281 C 52.78125 103.410156 51.570312 101.777344 50.4375 100.078125 C 49.304688 98.382812 48.257812 96.636719 47.296875 94.839844 C 46.332031 93.042969 45.464844 91.199219 44.683594 89.316406 C 43.902344 87.433594 43.214844 85.515625 42.625 83.5625 C 42.03125 81.613281 41.539062 79.636719 41.140625 77.636719 C 40.742188 75.636719 40.441406 73.621094 40.242188 71.59375 C 40.042969 69.5625 39.945312 67.53125 39.945312 65.492188 C 39.945312 63.453125 40.042969 61.417969 40.242188 59.386719 C 40.441406 57.359375 40.742188 55.34375 41.140625 53.34375 C 41.539062 51.34375 42.03125 49.371094 42.625 47.417969 C 43.214844 45.46875 43.902344 43.550781 44.683594 41.664062 C 45.464844 39.78125 46.332031 37.941406 47.296875 36.140625 C 48.257812 34.34375 49.304688 32.597656 50.4375 30.902344 C 51.570312 29.207031 52.78125 27.570312 54.074219 25.996094 C 55.371094 24.417969 56.738281 22.910156 58.179688 21.46875 C 59.621094 20.027344 61.128906 18.65625 62.707031 17.363281 C 64.28125 16.070312 65.917969 14.859375 67.613281 13.726562 C 69.308594 12.589844 71.054688 11.542969 72.855469 10.582031 C 74.652344 9.621094 76.492188 8.75 78.375 7.972656 C 80.261719 7.191406 82.179688 6.503906 84.128906 5.914062 C 86.082031 5.320312 88.054688 4.828125 90.054688 4.429688 C 92.054688 4.03125 94.070312 3.730469 96.101562 3.53125 C 98.128906 3.332031 100.164062 3.230469 102.203125 3.230469 C 104.242188 3.230469 106.277344 3.332031 108.304688 3.53125 C 110.332031 3.730469 112.347656 4.03125 114.347656 4.429688 C 116.347656 4.828125 118.324219 5.320312 120.273438 5.914062 C 122.226562 6.503906 124.144531 7.191406 126.027344 7.972656 C 127.910156 8.75 129.753906 9.621094 131.550781 10.582031 C 133.347656 11.542969 135.097656 12.589844 136.792969 13.726562 C 138.488281 14.859375 140.121094 16.070312 141.699219 17.363281 C 143.273438 18.65625 144.785156 20.027344 146.226562 21.46875 C 147.667969 22.910156 149.035156 24.417969 150.328125 25.996094 C 151.621094 27.570312 152.835938 29.207031 153.96875 30.902344 C 155.101562 32.597656 156.148438 34.34375 157.109375 36.140625 C 158.070312 37.941406 158.941406 39.78125 159.722656 41.664062 C 160.503906 43.550781 161.1875 45.46875 161.78125 47.417969 C 162.371094 49.371094 162.867188 51.34375 163.265625 53.34375 C 163.664062 55.34375 163.960938 57.359375 164.160156 59.386719 C 164.359375 61.417969 164.460938 63.453125 164.460938 65.492188 Z M 164.460938 65.492188 " fill-opacity="1" fill-rule="nonzero"/></g><g clip-path="url(#9c25c9a3b6)"><path fill="#f48886" d="M 90.515625 36.339844 C 49.660156 36.339844 16.574219 69.425781 16.574219 110.28125 C 16.574219 151.132812 49.660156 184.222656 90.515625 184.222656 C 131.367188 184.222656 164.457031 151.132812 164.457031 110.28125 C 164.457031 69.425781 131.367188 36.339844 90.515625 36.339844 Z M 90.515625 169.433594 C 57.832031 169.433594 31.359375 142.960938 31.359375 110.28125 C 31.359375 77.597656 57.832031 51.125 90.515625 51.125 C 123.195312 51.125 149.667969 77.597656 149.667969 110.28125 C 149.667969 142.960938 123.195312 169.433594 90.515625 169.433594 Z M 90.515625 169.433594 " fill-opacity="1" fill-rule="nonzero"/></g></svg>