<svg xmlns="http://www.w3.org/2000/svg" xmlns:xlink="http://www.w3.org/1999/xlink" width="250" zoomAndPan="magnify" viewBox="0 0 187.5 187.499992" height="250" preserveAspectRatio="xMidYMid meet" version="1.0"><defs><clipPath id="33d7e5473d"><path d="M 53.097656 59.710938 L 177.269531 59.710938 L 177.269531 183.878906 L 53.097656 183.878906 Z M 53.097656 59.710938 " clip-rule="nonzero"/></clipPath><clipPath id="f82bc6830a"><path d="M 4.160156 2.890625 L 152.265625 2.890625 L 152.265625 150.996094 L 4.160156 150.996094 Z M 4.160156 2.890625 " clip-rule="nonzero"/></clipPath></defs><g clip-path="url(#33d7e5473d)"><path fill="#2f838a" d="M 177.617188 121.96875 C 177.617188 124.007812 177.515625 126.042969 177.316406 128.070312 C 177.117188 130.101562 176.816406 132.113281 176.421875 134.113281 C 176.023438 136.113281 175.527344 138.089844 174.9375 140.039062 C 174.34375 141.992188 173.65625 143.910156 172.878906 145.792969 C 172.097656 147.675781 171.226562 149.519531 170.265625 151.316406 C 169.304688 153.113281 168.257812 154.863281 167.125 156.558594 C 165.992188 158.253906 164.777344 159.886719 163.484375 161.464844 C 162.191406 163.039062 160.824219 164.550781 159.382812 165.992188 C 157.941406 167.433594 156.429688 168.800781 154.855469 170.09375 C 153.277344 171.386719 151.640625 172.601562 149.945312 173.734375 C 148.25 174.867188 146.503906 175.914062 144.707031 176.875 C 142.910156 177.835938 141.066406 178.707031 139.183594 179.488281 C 137.300781 180.269531 135.382812 180.953125 133.429688 181.546875 C 131.480469 182.136719 129.503906 182.632812 127.503906 183.03125 C 125.503906 183.429688 123.488281 183.726562 121.460938 183.925781 C 119.429688 184.128906 117.398438 184.226562 115.359375 184.226562 C 113.320312 184.226562 111.285156 184.128906 109.253906 183.925781 C 107.226562 183.726562 105.210938 183.429688 103.210938 183.03125 C 101.210938 182.632812 99.238281 182.136719 97.285156 181.546875 C 95.332031 180.953125 93.417969 180.269531 91.53125 179.488281 C 89.648438 178.707031 87.808594 177.835938 86.007812 176.875 C 84.210938 175.914062 82.464844 174.867188 80.769531 173.734375 C 79.074219 172.601562 77.4375 171.386719 75.863281 170.09375 C 74.285156 168.800781 72.777344 167.433594 71.335938 165.992188 C 69.890625 164.550781 68.523438 163.039062 67.230469 161.464844 C 65.9375 159.886719 64.722656 158.253906 63.589844 156.558594 C 62.457031 154.863281 61.410156 153.113281 60.449219 151.316406 C 59.488281 149.519531 58.617188 147.675781 57.839844 145.792969 C 57.058594 143.910156 56.371094 141.992188 55.78125 140.039062 C 55.1875 138.089844 54.691406 136.113281 54.296875 134.113281 C 53.898438 132.113281 53.597656 130.101562 53.398438 128.070312 C 53.199219 126.042969 53.097656 124.007812 53.097656 121.96875 C 53.097656 119.929688 53.199219 117.894531 53.398438 115.867188 C 53.597656 113.835938 53.898438 111.820312 54.296875 109.820312 C 54.691406 107.820312 55.1875 105.847656 55.78125 103.894531 C 56.371094 101.945312 57.058594 100.027344 57.839844 98.144531 C 58.617188 96.257812 59.488281 94.417969 60.449219 92.621094 C 61.410156 90.820312 62.457031 89.074219 63.589844 87.378906 C 64.722656 85.683594 65.9375 84.046875 67.230469 82.472656 C 68.523438 80.894531 69.890625 79.386719 71.335938 77.945312 C 72.777344 76.503906 74.285156 75.136719 75.863281 73.839844 C 77.4375 72.546875 79.074219 71.335938 80.769531 70.203125 C 82.464844 69.070312 84.210938 68.023438 86.007812 67.0625 C 87.808594 66.097656 89.648438 65.230469 91.53125 64.449219 C 93.417969 63.667969 95.332031 62.980469 97.285156 62.390625 C 99.238281 61.796875 101.210938 61.304688 103.210938 60.90625 C 105.210938 60.507812 107.226562 60.207031 109.253906 60.007812 C 111.285156 59.808594 113.320312 59.710938 115.359375 59.710938 C 117.398438 59.710938 119.429688 59.808594 121.460938 60.007812 C 123.488281 60.207031 125.503906 60.507812 127.503906 60.90625 C 129.503906 61.304688 131.480469 61.796875 133.429688 62.390625 C 135.382812 62.980469 137.300781 63.667969 139.183594 64.449219 C 141.066406 65.230469 142.910156 66.097656 144.707031 67.0625 C 146.503906 68.023438 148.25 69.070312 149.945312 70.203125 C 151.640625 71.335938 153.277344 72.546875 154.855469 73.839844 C 156.429688 75.136719 157.941406 76.503906 159.382812 77.945312 C 160.824219 79.386719 162.191406 80.894531 163.484375 82.472656 C 164.777344 84.046875 165.992188 85.683594 167.125 87.378906 C 168.257812 89.074219 169.304688 90.820312 170.265625 92.621094 C 171.226562 94.417969 172.097656 96.257812 172.878906 98.144531 C 173.65625 100.027344 174.34375 101.945312 174.9375 103.894531 C 175.527344 105.847656 176.023438 107.820312 176.421875 109.820312 C 176.816406 111.820312 177.117188 113.835938 177.316406 115.867188 C 177.515625 117.894531 177.617188 119.929688 177.617188 121.96875 Z M 177.617188 121.96875 " fill-opacity="1" fill-rule="nonzero"/></g><g clip-path="url(#f82bc6830a)"><path fill="#f48886" d="M 78.101562 2.890625 C 37.25 2.890625 4.160156 35.976562 4.160156 76.832031 C 4.160156 117.683594 37.25 150.773438 78.101562 150.773438 C 118.953125 150.773438 152.042969 117.683594 152.042969 76.832031 C 152.042969 35.976562 118.953125 2.890625 78.101562 2.890625 Z M 78.101562 135.984375 C 45.417969 135.984375 18.949219 109.511719 18.949219 76.832031 C 18.949219 44.148438 45.417969 17.679688 78.101562 17.679688 C 110.78125 17.679688 137.253906 44.148438 137.253906 76.832031 C 137.253906 109.511719 110.78125 135.984375 78.101562 135.984375 Z M 78.101562 135.984375 " fill-opacity="1" fill-rule="nonzero"/></g></svg>