<svg xmlns="http://www.w3.org/2000/svg" xmlns:xlink="http://www.w3.org/1999/xlink" width="40" zoomAndPan="magnify" viewBox="0 0 73.5 138.750001" height="40" preserveAspectRatio="xMidYMid meet" version="1.0"><defs><clipPath id="ad3128c100"><path d="M 7 1 L 72 1 L 72 126 L 7 126 Z M 7 1 " clip-rule="nonzero"/></clipPath><clipPath id="5cca4d9019"><path d="M 99.707031 105.816406 L 38.828125 140.414062 L -26.6875 25.128906 L 34.191406 -9.46875 Z M 99.707031 105.816406 " clip-rule="nonzero"/></clipPath><clipPath id="f0cfc167b6"><path d="M 99.707031 105.816406 L 38.828125 140.414062 L -26.6875 25.128906 L 34.191406 -9.46875 Z M 99.707031 105.816406 " clip-rule="nonzero"/></clipPath></defs><g clip-path="url(#ad3128c100)"><g clip-path="url(#5cca4d9019)"><g clip-path="url(#f0cfc167b6)"><path fill="#f48886" d="M 18.429688 105.011719 C 16.839844 101.804688 18.261719 97.988281 21.953125 97.183594 C 23.8125 96.777344 25.644531 96.789062 27.460938 97.304688 C 29.898438 98.003906 32.425781 98.179688 34.90625 98.644531 C 37.558594 99.140625 40.058594 100.03125 42.542969 101.015625 C 46.957031 102.761719 51.414062 104.386719 55.894531 105.953125 C 59.460938 107.199219 63.078125 108.34375 66.359375 110.292969 C 68.074219 111.3125 69.25 112.914062 70.644531 114.269531 C 71.417969 115.019531 71.546875 116.148438 71.4375 117.199219 C 71.136719 120.09375 70.15625 122.617188 67.226562 124.03125 C 65.464844 125.25 63.359375 125.417969 61.226562 125.359375 C 56.457031 125.226562 51.9375 123.945312 47.484375 122.328125 C 43.542969 120.898438 39.578125 119.511719 35.882812 117.507812 C 30.960938 114.839844 26.0625 112.128906 21.738281 108.484375 C 20.484375 107.429688 19.191406 106.554688 18.429688 105.011719 Z M 29.40625 72.660156 C 31.121094 72.398438 32.785156 71.890625 34.558594 71.898438 C 39.160156 71.929688 43.746094 71.613281 48.285156 70.832031 C 51.425781 70.289062 54.484375 69.398438 57.519531 68.441406 C 61.039062 67.332031 64.289062 65.753906 66.976562 63.117188 C 71.359375 58.816406 69.820312 53.230469 66.507812 49.847656 C 65.027344 48.335938 63.109375 48.621094 61.25 48.886719 C 57.710938 49.390625 54.410156 50.785156 51 51.75 C 46.515625 53.019531 41.996094 54.183594 37.546875 55.601562 C 34.328125 56.628906 31.238281 57.882812 28.425781 59.320312 C 26.960938 60.257812 25.613281 61.042969 24.074219 61.15625 C 22.066406 61.304688 19.558594 63.964844 19.296875 66.304688 C 19.164062 67.492188 19.238281 68.675781 20.121094 69.648438 C 22.644531 72.429688 25.796875 73.207031 29.40625 72.660156 Z M 8.476562 38.636719 C 8.792969 39.089844 9.394531 39.089844 9.8125 39.40625 C 11.101562 40.367188 12.742188 40.160156 13.625 38.851562 C 14.511719 37.53125 15.359375 36.167969 16.109375 34.765625 C 19.660156 28.113281 21.507812 20.886719 23.03125 13.574219 C 23.636719 10.675781 23.902344 7.714844 22.894531 4.78125 C 22.097656 2.460938 20.328125 1.164062 17.890625 1.242188 C 16.398438 1.292969 15.101562 1.902344 13.804688 2.496094 C 12.078125 3.285156 11.054688 4.648438 10.65625 6.53125 C 10.324219 8.101562 10.203125 9.6875 10.046875 11.269531 C 9.769531 14.128906 8.730469 16.84375 8.441406 19.671875 C 7.960938 24.386719 7.664062 29.125 7.171875 33.84375 C 7.042969 35.097656 6.957031 36.464844 7.917969 37.664062 C 8.070312 37.933594 8.246094 38.304688 8.476562 38.636719 Z M 30.515625 88.476562 C 34.089844 88.089844 37.671875 88.839844 41.257812 88.332031 C 43.242188 88.050781 45.257812 88.011719 46.984375 86.753906 C 48.476562 86.105469 49.65625 85.136719 49.761719 83.355469 C 49.878906 81.378906 48.828125 80.089844 46.554688 79.46875 C 41.5625 78.105469 36.570312 78.417969 31.597656 79.613281 C 30.773438 79.8125 29.976562 80.132812 29.144531 80.289062 C 28.058594 80.492188 27.242188 81.121094 26.722656 81.984375 C 25.554688 83.925781 26.203125 85.421875 27.785156 87.179688 C 28.472656 87.941406 29.386719 88.59375 30.515625 88.476562 Z M 24.824219 35.46875 C 22.554688 36.757812 20.867188 38.316406 19.261719 40.628906 C 18.371094 41.90625 17.417969 43.125 16.316406 44.242188 C 14.382812 46.207031 14.738281 49.394531 16.988281 50.890625 C 17.167969 51.007812 17.335938 51.164062 17.457031 51.335938 C 18.515625 52.816406 20.039062 53.035156 21.28125 51.78125 C 23.523438 49.515625 26.164062 47.757812 28.679688 45.835938 C 30.550781 44.398438 32.257812 42.796875 32.757812 40.339844 C 33.003906 39.125 33.082031 37.863281 32.28125 36.816406 C 30.65625 34.691406 27.222656 34.105469 24.824219 35.46875 Z M 24.824219 35.46875 " fill-opacity="1" fill-rule="nonzero"/></g></g></g></svg>