<svg xmlns="http://www.w3.org/2000/svg" xmlns:xlink="http://www.w3.org/1999/xlink" width="187" zoomAndPan="magnify" viewBox="0 0 140.25 45.749998" height="61" preserveAspectRatio="xMidYMid meet" version="1.0"><defs><g/></defs><g fill="#9c76b1" fill-opacity="1"><g transform="translate(23.996017, 35.931292)"><g><path d="M 15.375 -2.40625 C 15.375 -1.46875 15.125 -0.78125 14.625 -0.34375 C 14.125 0.0820312 13.367188 0.296875 12.359375 0.296875 C 11.328125 0.296875 10.566406 0.0820312 10.078125 -0.34375 C 9.585938 -0.78125 9.34375 -1.46875 9.34375 -2.40625 L 9.34375 -24.546875 C 9.34375 -24.816406 9.3125 -25.03125 9.25 -25.1875 C 9.1875 -25.34375 9.097656 -25.46875 8.984375 -25.5625 C 8.878906 -25.65625 8.75 -25.71875 8.59375 -25.75 C 8.4375 -25.78125 8.269531 -25.796875 8.09375 -25.796875 C 7.820312 -25.796875 7.484375 -25.753906 7.078125 -25.671875 C 6.679688 -25.585938 6.265625 -25.457031 5.828125 -25.28125 C 5.390625 -25.113281 4.945312 -24.898438 4.5 -24.640625 C 4.050781 -24.390625 3.648438 -24.101562 3.296875 -23.78125 C 2.953125 -23.46875 2.664062 -23.113281 2.4375 -22.71875 C 2.21875 -22.332031 2.109375 -21.910156 2.109375 -21.453125 C 2.109375 -21.066406 2.160156 -20.753906 2.265625 -20.515625 C 2.367188 -20.285156 2.488281 -20.113281 2.625 -20 C 2.757812 -19.882812 2.894531 -19.8125 3.03125 -19.78125 C 3.175781 -19.75 3.28125 -19.734375 3.34375 -19.734375 C 3.65625 -19.734375 3.90625 -19.785156 4.09375 -19.890625 C 4.289062 -19.992188 4.46875 -20.101562 4.625 -20.21875 C 4.789062 -20.332031 4.941406 -20.441406 5.078125 -20.546875 C 5.222656 -20.648438 5.390625 -20.703125 5.578125 -20.703125 C 5.722656 -20.703125 5.875 -20.664062 6.03125 -20.59375 C 6.195312 -20.53125 6.351562 -20.425781 6.5 -20.28125 C 6.644531 -20.132812 6.765625 -19.941406 6.859375 -19.703125 C 6.953125 -19.460938 7 -19.171875 7 -18.828125 C 7 -18.335938 6.90625 -17.914062 6.71875 -17.5625 C 6.53125 -17.207031 6.285156 -16.910156 5.984375 -16.671875 C 5.679688 -16.429688 5.335938 -16.25 4.953125 -16.125 C 4.566406 -16.007812 4.1875 -15.953125 3.8125 -15.953125 C 3.21875 -15.953125 2.679688 -16.050781 2.203125 -16.25 C 1.734375 -16.457031 1.332031 -16.738281 1 -17.09375 C 0.675781 -17.457031 0.425781 -17.875 0.25 -18.34375 C 0.0820312 -18.820312 0 -19.332031 0 -19.875 C 0 -20.71875 0.148438 -21.492188 0.453125 -22.203125 C 0.765625 -22.910156 1.1875 -23.546875 1.71875 -24.109375 C 2.25 -24.671875 2.875 -25.160156 3.59375 -25.578125 C 4.3125 -26.003906 5.085938 -26.359375 5.921875 -26.640625 C 6.753906 -26.921875 7.625 -27.128906 8.53125 -27.265625 C 9.4375 -27.410156 10.34375 -27.484375 11.25 -27.484375 C 12.257812 -27.484375 13.039062 -27.390625 13.59375 -27.203125 C 14.15625 -27.015625 14.566406 -26.785156 14.828125 -26.515625 C 15.085938 -26.242188 15.242188 -25.960938 15.296875 -25.671875 C 15.347656 -25.378906 15.375 -25.132812 15.375 -24.9375 Z M 15.375 -2.40625 "/></g></g></g><g fill="#000000" fill-opacity="1"><g transform="translate(42.150928, 35.931292)"><g><path d="M 13.109375 -9.15625 C 13.109375 -10.695312 13.035156 -11.929688 12.890625 -12.859375 C 12.753906 -13.785156 12.566406 -14.488281 12.328125 -14.96875 C 12.097656 -15.457031 11.84375 -15.773438 11.5625 -15.921875 C 11.28125 -16.078125 10.992188 -16.15625 10.703125 -16.15625 C 10.347656 -16.15625 10.03125 -16.0625 9.75 -15.875 C 9.476562 -15.6875 9.238281 -15.46875 9.03125 -15.21875 C 8.832031 -14.976562 8.660156 -14.734375 8.515625 -14.484375 C 8.378906 -14.242188 8.257812 -14.0625 8.15625 -13.9375 L 8.15625 -1.65625 C 8.15625 -1.5 8.128906 -1.304688 8.078125 -1.078125 C 8.035156 -0.847656 7.921875 -0.628906 7.734375 -0.421875 C 7.546875 -0.222656 7.265625 -0.0546875 6.890625 0.078125 C 6.515625 0.222656 6 0.296875 5.34375 0.296875 C 4.695312 0.296875 4.1875 0.21875 3.8125 0.0625 C 3.4375 -0.09375 3.148438 -0.273438 2.953125 -0.484375 C 2.765625 -0.691406 2.644531 -0.90625 2.59375 -1.125 C 2.539062 -1.34375 2.515625 -1.519531 2.515625 -1.65625 L 2.515625 -15.84375 C 2.515625 -16.195312 2.429688 -16.503906 2.265625 -16.765625 C 2.097656 -17.035156 1.820312 -17.171875 1.4375 -17.171875 C 1.226562 -17.171875 1.050781 -17.132812 0.90625 -17.0625 C 0.757812 -16.988281 0.597656 -16.882812 0.421875 -16.75 L 0.03125 -17.203125 C 0.3125 -17.441406 0.625 -17.671875 0.96875 -17.890625 C 1.320312 -18.117188 1.703125 -18.316406 2.109375 -18.484375 C 2.515625 -18.660156 2.953125 -18.800781 3.421875 -18.90625 C 3.890625 -19.019531 4.378906 -19.078125 4.890625 -19.078125 C 5.691406 -19.078125 6.3125 -18.945312 6.75 -18.6875 C 7.1875 -18.425781 7.507812 -18.109375 7.71875 -17.734375 C 7.925781 -17.367188 8.050781 -16.988281 8.09375 -16.59375 C 8.132812 -16.195312 8.15625 -15.863281 8.15625 -15.59375 C 8.613281 -16.238281 9.128906 -16.820312 9.703125 -17.34375 C 9.941406 -17.5625 10.203125 -17.773438 10.484375 -17.984375 C 10.773438 -18.191406 11.082031 -18.378906 11.40625 -18.546875 C 11.726562 -18.710938 12.070312 -18.84375 12.4375 -18.9375 C 12.800781 -19.03125 13.171875 -19.078125 13.546875 -19.078125 C 14.378906 -19.078125 15.117188 -18.914062 15.765625 -18.59375 C 16.410156 -18.28125 16.953125 -17.75 17.390625 -17 C 17.835938 -16.257812 18.175781 -15.269531 18.40625 -14.03125 C 18.632812 -12.800781 18.75 -11.273438 18.75 -9.453125 C 18.75 -7.671875 18.585938 -6.125 18.265625 -4.8125 C 17.953125 -3.5 17.535156 -2.382812 17.015625 -1.46875 C 16.503906 -0.550781 15.925781 0.195312 15.28125 0.78125 C 14.632812 1.363281 13.976562 1.816406 13.3125 2.140625 C 12.644531 2.472656 12.007812 2.703125 11.40625 2.828125 C 10.800781 2.960938 10.28125 3.035156 9.84375 3.046875 L 9.640625 2.296875 C 10.003906 2.210938 10.34375 2.078125 10.65625 1.890625 C 10.96875 1.710938 11.25 1.441406 11.5 1.078125 C 11.757812 0.722656 11.988281 0.273438 12.1875 -0.265625 C 12.382812 -0.804688 12.550781 -1.488281 12.6875 -2.3125 C 12.832031 -3.132812 12.9375 -4.101562 13 -5.21875 C 13.070312 -6.34375 13.109375 -7.65625 13.109375 -9.15625 Z M 13.109375 -9.15625 "/></g></g></g><g fill="#000000" fill-opacity="1"><g transform="translate(62.414019, 35.931292)"><g><path d="M 12.5 -9.984375 C 12.5 -10.117188 12.5 -10.390625 12.5 -10.796875 C 12.5 -11.210938 12.484375 -11.6875 12.453125 -12.21875 C 12.429688 -12.75 12.390625 -13.3125 12.328125 -13.90625 C 12.273438 -14.507812 12.179688 -15.070312 12.046875 -15.59375 C 11.753906 -15.96875 11.425781 -16.304688 11.0625 -16.609375 C 10.695312 -16.910156 10.234375 -17.0625 9.671875 -17.0625 C 8.710938 -17.0625 8.007812 -16.4375 7.5625 -15.1875 C 7.113281 -13.9375 6.890625 -12 6.890625 -9.375 C 6.890625 -8.226562 6.941406 -7.175781 7.046875 -6.21875 C 7.148438 -5.257812 7.304688 -4.4375 7.515625 -3.75 C 7.734375 -3.0625 8.007812 -2.523438 8.34375 -2.140625 C 8.6875 -1.765625 9.09375 -1.578125 9.5625 -1.578125 C 11.519531 -1.578125 12.5 -4.378906 12.5 -9.984375 Z M 12.28125 -18.078125 C 12.050781 -19.296875 11.726562 -20.4375 11.3125 -21.5 C 10.894531 -22.5625 10.394531 -23.476562 9.8125 -24.25 C 9.226562 -25.019531 8.566406 -25.625 7.828125 -26.0625 C 7.085938 -26.507812 6.285156 -26.734375 5.421875 -26.734375 C 4.929688 -26.734375 4.488281 -26.671875 4.09375 -26.546875 C 3.695312 -26.421875 3.347656 -26.273438 3.046875 -26.109375 C 2.753906 -25.953125 2.515625 -25.796875 2.328125 -25.640625 C 2.140625 -25.484375 2 -25.367188 1.90625 -25.296875 L 1.4375 -25.9375 C 1.726562 -26.320312 2.082031 -26.675781 2.5 -27 C 2.925781 -27.332031 3.390625 -27.613281 3.890625 -27.84375 C 4.398438 -28.082031 4.929688 -28.269531 5.484375 -28.40625 C 6.046875 -28.539062 6.601562 -28.609375 7.15625 -28.609375 C 8.96875 -28.609375 10.5625 -28.210938 11.9375 -27.421875 C 13.3125 -26.628906 14.457031 -25.507812 15.375 -24.0625 C 16.289062 -22.625 16.976562 -20.878906 17.4375 -18.828125 C 17.90625 -16.773438 18.140625 -14.5 18.140625 -12 C 18.140625 -9.976562 17.9375 -8.203125 17.53125 -6.671875 C 17.125 -5.140625 16.539062 -3.851562 15.78125 -2.8125 C 15.019531 -1.78125 14.09375 -1.003906 13 -0.484375 C 11.914062 0.0351562 10.695312 0.296875 9.34375 0.296875 C 8.394531 0.296875 7.429688 0.128906 6.453125 -0.203125 C 5.484375 -0.546875 4.601562 -1.097656 3.8125 -1.859375 C 3.019531 -2.617188 2.375 -3.613281 1.875 -4.84375 C 1.375 -6.070312 1.125 -7.582031 1.125 -9.375 C 1.125 -10.914062 1.335938 -12.285156 1.765625 -13.484375 C 2.203125 -14.691406 2.789062 -15.707031 3.53125 -16.53125 C 4.269531 -17.363281 5.117188 -17.992188 6.078125 -18.421875 C 7.046875 -18.859375 8.070312 -19.078125 9.15625 -19.078125 C 9.570312 -19.078125 9.945312 -19.046875 10.28125 -18.984375 C 10.613281 -18.921875 10.898438 -18.835938 11.140625 -18.734375 C 11.390625 -18.640625 11.601562 -18.53125 11.78125 -18.40625 C 11.96875 -18.289062 12.132812 -18.179688 12.28125 -18.078125 Z M 12.28125 -18.078125 "/></g></g></g><g fill="#000000" fill-opacity="1"><g transform="translate(81.776126, 35.931292)"><g><path d="M 8.15625 -15.203125 C 8.625 -15.910156 9.125 -16.554688 9.65625 -17.140625 C 9.875 -17.378906 10.109375 -17.613281 10.359375 -17.84375 C 10.617188 -18.082031 10.882812 -18.289062 11.15625 -18.46875 C 11.4375 -18.65625 11.722656 -18.800781 12.015625 -18.90625 C 12.316406 -19.019531 12.613281 -19.078125 12.90625 -19.078125 C 13.53125 -19.078125 14.019531 -18.890625 14.375 -18.515625 C 14.726562 -18.148438 14.90625 -17.628906 14.90625 -16.953125 C 14.90625 -16.535156 14.867188 -16.132812 14.796875 -15.75 C 14.734375 -15.363281 14.609375 -14.894531 14.421875 -14.34375 L 13.90625 -14.34375 C 13.832031 -14.71875 13.660156 -15.03125 13.390625 -15.28125 C 13.117188 -15.539062 12.722656 -15.671875 12.203125 -15.671875 C 11.828125 -15.671875 11.453125 -15.597656 11.078125 -15.453125 C 10.710938 -15.316406 10.351562 -15.144531 10 -14.9375 C 9.65625 -14.726562 9.328125 -14.5 9.015625 -14.25 C 8.703125 -14 8.414062 -13.765625 8.15625 -13.546875 L 8.15625 -1.625 C 8.15625 -1.457031 8.128906 -1.265625 8.078125 -1.046875 C 8.035156 -0.828125 7.921875 -0.617188 7.734375 -0.421875 C 7.546875 -0.222656 7.265625 -0.0546875 6.890625 0.078125 C 6.515625 0.222656 6 0.296875 5.34375 0.296875 C 4.695312 0.296875 4.1875 0.21875 3.8125 0.0625 C 3.4375 -0.09375 3.148438 -0.273438 2.953125 -0.484375 C 2.765625 -0.691406 2.644531 -0.90625 2.59375 -1.125 C 2.539062 -1.34375 2.515625 -1.519531 2.515625 -1.65625 L 2.515625 -15.84375 C 2.515625 -16.195312 2.429688 -16.503906 2.265625 -16.765625 C 2.097656 -17.035156 1.820312 -17.171875 1.4375 -17.171875 C 1.226562 -17.171875 1.050781 -17.132812 0.90625 -17.0625 C 0.757812 -16.988281 0.597656 -16.882812 0.421875 -16.75 L 0.03125 -17.203125 C 0.3125 -17.441406 0.625 -17.671875 0.96875 -17.890625 C 1.320312 -18.117188 1.703125 -18.316406 2.109375 -18.484375 C 2.515625 -18.660156 2.953125 -18.800781 3.421875 -18.90625 C 3.890625 -19.019531 4.378906 -19.078125 4.890625 -19.078125 C 5.421875 -19.078125 5.867188 -19.003906 6.234375 -18.859375 C 6.609375 -18.722656 6.914062 -18.539062 7.15625 -18.3125 C 7.394531 -18.09375 7.582031 -17.84375 7.71875 -17.5625 C 7.851562 -17.28125 7.953125 -16.992188 8.015625 -16.703125 C 8.085938 -16.410156 8.128906 -16.132812 8.140625 -15.875 C 8.148438 -15.613281 8.15625 -15.390625 8.15625 -15.203125 Z M 8.15625 -15.203125 "/></g></g></g><g fill="#000000" fill-opacity="1"><g transform="translate(96.725218, 35.931292)"><g><path d="M 10.578125 -9.53125 C 10.578125 -9.832031 10.476562 -10.0625 10.28125 -10.21875 C 10.082031 -10.382812 9.832031 -10.46875 9.53125 -10.46875 C 9.09375 -10.46875 8.679688 -10.367188 8.296875 -10.171875 C 7.910156 -9.972656 7.570312 -9.679688 7.28125 -9.296875 C 6.988281 -8.921875 6.753906 -8.453125 6.578125 -7.890625 C 6.410156 -7.335938 6.328125 -6.691406 6.328125 -5.953125 C 6.328125 -5.242188 6.378906 -4.65625 6.484375 -4.1875 C 6.585938 -3.726562 6.726562 -3.359375 6.90625 -3.078125 C 7.082031 -2.804688 7.285156 -2.613281 7.515625 -2.5 C 7.753906 -2.382812 8 -2.328125 8.25 -2.328125 C 8.570312 -2.328125 8.875 -2.410156 9.15625 -2.578125 C 9.4375 -2.742188 9.679688 -2.957031 9.890625 -3.21875 C 10.097656 -3.476562 10.265625 -3.765625 10.390625 -4.078125 C 10.515625 -4.398438 10.578125 -4.71875 10.578125 -5.03125 Z M 7.65625 -17.578125 C 7.238281 -17.578125 6.847656 -17.523438 6.484375 -17.421875 C 6.128906 -17.328125 5.820312 -17.207031 5.5625 -17.0625 C 5.3125 -16.914062 5.113281 -16.753906 4.96875 -16.578125 C 4.820312 -16.398438 4.75 -16.226562 4.75 -16.0625 C 4.75 -15.882812 4.84375 -15.753906 5.03125 -15.671875 C 5.21875 -15.597656 5.425781 -15.507812 5.65625 -15.40625 C 5.894531 -15.300781 6.109375 -15.148438 6.296875 -14.953125 C 6.484375 -14.765625 6.578125 -14.472656 6.578125 -14.078125 C 6.578125 -13.828125 6.523438 -13.59375 6.421875 -13.375 C 6.316406 -13.15625 6.175781 -12.960938 6 -12.796875 C 5.820312 -12.640625 5.613281 -12.515625 5.375 -12.421875 C 5.132812 -12.328125 4.890625 -12.28125 4.640625 -12.28125 C 3.953125 -12.28125 3.394531 -12.515625 2.96875 -12.984375 C 2.539062 -13.453125 2.328125 -14.070312 2.328125 -14.84375 C 2.328125 -15.582031 2.523438 -16.21875 2.921875 -16.75 C 3.316406 -17.289062 3.828125 -17.734375 4.453125 -18.078125 C 5.085938 -18.421875 5.800781 -18.671875 6.59375 -18.828125 C 7.394531 -18.992188 8.191406 -19.078125 8.984375 -19.078125 C 9.941406 -19.078125 10.851562 -18.972656 11.71875 -18.765625 C 12.59375 -18.554688 13.363281 -18.222656 14.03125 -17.765625 C 14.707031 -17.316406 15.242188 -16.742188 15.640625 -16.046875 C 16.035156 -15.347656 16.234375 -14.503906 16.234375 -13.515625 L 16.234375 -3.125 C 16.234375 -3.007812 16.238281 -2.882812 16.25 -2.75 C 16.257812 -2.625 16.289062 -2.503906 16.34375 -2.390625 C 16.394531 -2.273438 16.46875 -2.179688 16.5625 -2.109375 C 16.664062 -2.035156 16.804688 -2 16.984375 -2 C 17.210938 -2 17.421875 -2.082031 17.609375 -2.25 C 17.796875 -2.414062 17.960938 -2.585938 18.109375 -2.765625 L 18.578125 -2.375 C 18.390625 -2.113281 18.164062 -1.828125 17.90625 -1.515625 C 17.644531 -1.210938 17.332031 -0.925781 16.96875 -0.65625 C 16.601562 -0.382812 16.175781 -0.160156 15.6875 0.015625 C 15.195312 0.203125 14.640625 0.296875 14.015625 0.296875 C 13.242188 0.296875 12.554688 0.0664062 11.953125 -0.390625 C 11.347656 -0.847656 10.957031 -1.554688 10.78125 -2.515625 C 10.382812 -1.992188 9.972656 -1.550781 9.546875 -1.1875 C 9.128906 -0.832031 8.695312 -0.546875 8.25 -0.328125 C 7.8125 -0.109375 7.367188 0.046875 6.921875 0.140625 C 6.472656 0.242188 6.023438 0.296875 5.578125 0.296875 C 4.984375 0.296875 4.410156 0.203125 3.859375 0.015625 C 3.304688 -0.160156 2.8125 -0.445312 2.375 -0.84375 C 1.945312 -1.25 1.597656 -1.769531 1.328125 -2.40625 C 1.066406 -3.039062 0.9375 -3.820312 0.9375 -4.75 C 0.9375 -5.863281 1.15625 -6.773438 1.59375 -7.484375 C 2.039062 -8.191406 2.617188 -8.785156 3.328125 -9.265625 C 4.046875 -9.753906 4.863281 -10.171875 5.78125 -10.515625 C 6.695312 -10.859375 7.632812 -11.222656 8.59375 -11.609375 C 9.300781 -11.890625 9.816406 -12.304688 10.140625 -12.859375 C 10.460938 -13.421875 10.625 -13.992188 10.625 -14.578125 C 10.625 -15.484375 10.359375 -16.207031 9.828125 -16.75 C 9.296875 -17.300781 8.570312 -17.578125 7.65625 -17.578125 Z M 7.65625 -17.578125 "/></g></g></g></svg>